<?xml version="1.0" standalone="no"?>
<!DOCTYPE svg PUBLIC "-//W3C//DTD SVG 20010904//EN"
 "http://www.w3.org/TR/2001/REC-SVG-20010904/DTD/svg10.dtd">
<svg version="1.0" xmlns="http://www.w3.org/2000/svg"
 width="512.000000pt" height="512.000000pt" viewBox="0 0 512.000000 512.000000"
 preserveAspectRatio="xMidYMid meet">
<metadata>
Created by potrace 1.14, written by Peter Selinger 2001-2017
</metadata>
<g transform="translate(0.000000,512.000000) scale(0.100000,-0.100000)"
fill="#000000" stroke="none">
<path d="M2207 5000 c-605 -70 -1141 -335 -1543 -763 -80 -86 -219 -261 -244
-307 -11 -20 -9 -20 644 -20 380 0 697 -4 757 -10 349 -35 717 -171 983 -362
l39 -28 -540 0 -540 0 -44 -23 c-29 -16 -54 -40 -74 -72 -27 -44 -30 -56 -29
-129 4 -298 214 -562 519 -652 54 -16 135 -18 860 -23 l800 -6 508 -343 c280
-189 510 -342 513 -340 7 8 52 233 66 328 17 125 17 506 -1 625 -82 558 -316
1030 -701 1415 -379 380 -834 609 -1376 695 -117 19 -484 28 -597 15z"/>
<path d="M175 3474 c-89 -214 -155 -504 -171 -753 l-7 -112 319 3 c308 3 320
4 354 25 19 12 44 37 55 55 19 31 20 51 20 375 0 331 -1 342 -21 370 -11 15
-36 38 -54 51 -32 21 -41 22 -256 22 l-224 0 -15 -36z"/>
<path d="M25 2198 c2 -13 9 -52 15 -88 13 -79 59 -258 73 -284 9 -19 37 -19
1236 -13 1217 5 1227 5 1290 27 74 25 571 271 595 295 21 22 20 41 -4 65 -20
20 -33 20 -1615 20 l-1595 0 5 -22z"/>
<path d="M190 1613 c1 -5 22 -51 48 -103 l47 -95 560 0 560 0 76 33 c42 18 97
46 123 62 38 24 46 35 46 59 0 20 -7 34 -19 41 -23 12 -1441 15 -1441 3z"/>
<path d="M705 839 c145 -147 382 -329 553 -422 283 -156 617 -262 937 -297 54
-6 620 -10 1431 -10 l1341 0 44 23 c24 13 58 43 74 66 26 37 30 51 30 111 0
60 -4 74 -30 111 -16 23 -50 53 -74 66 -40 21 -57 23 -175 23 l-131 0 -200
200 -200 200 -1835 0 -1834 0 69 -71z"/>
</g>
</svg>
